<svg viewBox="0 0 720 320" xmlns="http://www.w3.org/2000/svg" font-family="-apple-system, 'Noto Sans SC', sans-serif">
  <circle cx="360" cy="50" r="6" fill="#1a365d"/>
  <text x="360" y="38" text-anchor="middle" font-size="13" fill="#1a365d">Aster</text>

  <line x1="360" y1="50" x2="200" y2="150" stroke="#c53030" stroke-width="3"/>
  <line x1="360" y1="50" x2="520" y2="150" stroke="#94a1b2" stroke-width="1.6"/>
  <text x="266" y="94" text-anchor="middle" font-size="12.5" fill="#c53030">S1</text>
  <text x="454" y="94" text-anchor="middle" font-size="12.5" fill="#64748b">S2</text>

  <circle cx="200" cy="150" r="6" fill="#2b6cb0"/>
  <text x="200" y="138" text-anchor="middle" font-size="13" fill="#2b6cb0">Boreal</text>
  <circle cx="520" cy="150" r="6" fill="#2b6cb0"/>
  <text x="520" y="138" text-anchor="middle" font-size="13" fill="#2b6cb0">Boreal</text>

  <line x1="200" y1="150" x2="110" y2="250" stroke="#c53030" stroke-width="3"/>
  <line x1="200" y1="150" x2="290" y2="250" stroke="#94a1b2" stroke-width="1.6"/>
  <text x="145" y="205" text-anchor="middle" font-size="12" fill="#c53030">S1</text>
  <text x="255" y="205" text-anchor="middle" font-size="12" fill="#64748b">S2</text>

  <line x1="520" y1="150" x2="430" y2="250" stroke="#94a1b2" stroke-width="1.6"/>
  <line x1="520" y1="150" x2="610" y2="250" stroke="#7c7f46" stroke-width="2.4"/>
  <text x="465" y="205" text-anchor="middle" font-size="12" fill="#64748b">S1</text>
  <text x="575" y="205" text-anchor="middle" font-size="12" fill="#7c7f46">S2</text>

  <text x="110" y="270" text-anchor="middle" font-size="13" fill="#c53030" font-weight="bold">(3, 1)</text>
  <text x="290" y="270" text-anchor="middle" font-size="13" fill="#64748b">(0, 0)</text>
  <text x="430" y="270" text-anchor="middle" font-size="13" fill="#64748b">(0, 0)</text>
  <text x="610" y="270" text-anchor="middle" font-size="13" fill="#334155">(1, 3)</text>

  <text x="360" y="300" text-anchor="middle" font-size="12.5" fill="#c53030">backward induction path (bold) → SPE outcome (3, 1)</text>
</svg>
