<svg viewBox="0 0 720 340" xmlns="http://www.w3.org/2000/svg" font-family="-apple-system, 'Noto Sans SC', sans-serif">
  <line x1="80" y1="50" x2="80" y2="300" stroke="#94a1b2" stroke-width="1.5"/>
  <line x1="80" y1="300" x2="690" y2="300" stroke="#94a1b2" stroke-width="1.5"/>
  <text x="80" y="40" text-anchor="start" font-size="13" fill="#64748b">p1 (price)</text>
  <text x="690" y="320" text-anchor="end" font-size="13" fill="#64748b">x1 (quantity) →</text>

  <polygon opacity="0.14" fill="#2b6cb0" points="80,204.0 80,108.0 303.1,108.0 307.0,111.3 311.0,114.6 315.2,117.9 319.6,121.2 324.1,124.6 328.8,127.9 333.7,131.2 338.8,134.5 344.1,137.8 349.6,141.1 355.3,144.4 361.3,147.7 367.5,151.0 374.1,154.3 380.9,157.7 388.1,161.0 395.6,164.3 403.5,167.6 411.8,170.9 420.5,174.2 429.7,177.5 439.4,180.8 449.7,184.1 460.5,187.4 472.1,190.8 484.3,194.1 497.4,197.4 511.3,200.7 526.2,204.0"/>

  <line x1="80" y1="204" x2="560" y2="204" stroke="#cfccc4" stroke-width="1.2" stroke-dasharray="4 4"/>
  <line x1="80" y1="108" x2="560" y2="108" stroke="#cfccc4" stroke-width="1.2" stroke-dasharray="4 4"/>
  <text x="74" y="208" text-anchor="end" font-size="12" fill="#2d3748">p1 = 2</text>
  <text x="74" y="112" text-anchor="end" font-size="12" fill="#2d3748">p1 = 4</text>

  <polyline fill="none" stroke="#7c7f46" stroke-width="2" stroke-dasharray="5 4"
    points="539.4,242.4 523.3,238.9 508.6,235.3 495.2,231.8 482.8,228.3 471.4,224.8 460.8,221.2 450.9,217.7 441.7,214.2 433.0,210.7 424.9,207.1 417.3,203.6 410.1,200.1 403.3,196.6 396.9,193.0 390.8,189.5 385.0,186.0 379.4,182.4 374.2,178.9 369.1,175.4 364.3,171.9 359.7,168.3 355.3,164.8 351.1,161.3 347.1,157.8 343.2,154.2 339.4,150.7 335.8,147.2 332.3,143.7 329.0,140.1 325.7,136.6 322.6,133.1 319.6,129.6 316.7,126.0 313.8,122.5 311.1,119.0 308.4,115.4 305.9,111.9 303.4,108.4 300.9,104.9 298.6,101.3 296.3,97.8 294.0,94.3 291.9,90.8 289.7,87.2 287.7,83.7 285.7,80.2 283.7,76.7 281.8,73.1 280.0,69.6"/>

  <polyline fill="none" stroke="#2b6cb0" stroke-width="2.5"
    points="823.6,242.4 780.7,238.9 742.5,235.3 708.2,231.8 677.3,228.3 649.3,224.8 623.8,221.2 600.5,217.7 579.1,214.2 559.4,210.7 541.2,207.1 524.3,203.6 508.7,200.1 494.0,196.6 480.4,193.0 467.6,189.5 455.6,186.0 444.4,182.4 433.7,178.9 423.7,175.4 414.3,171.9 405.3,168.3 396.8,164.8 388.8,161.3 381.1,157.8 373.8,154.2 366.9,150.7 360.3,147.2 354.0,143.7 347.9,140.1 342.1,136.6 336.6,133.1 331.3,129.6 326.2,126.0 321.3,122.5 316.6,119.0 312.1,115.4 307.7,111.9 303.5,108.4 299.5,104.9 295.6,101.3 291.8,97.8 288.2,94.3 284.7,90.8 281.3,87.2 278.0,83.7 274.8,80.2 271.8,76.7 268.8,73.1 265.9,69.6"/>

  <polyline fill="none" stroke="#c53030" stroke-width="2" stroke-dasharray="5 4"
    points="686.2,242.4 664.9,238.9 645.6,235.3 627.8,231.8 611.5,228.3 596.4,224.8 582.4,221.2 569.4,217.7 557.2,214.2 545.8,210.7 535.1,207.1 525.1,203.6 515.6,200.1 506.6,196.6 498.1,193.0 490.0,189.5 482.4,186.0 475.1,182.4 468.2,178.9 461.5,175.4 455.2,171.9 449.1,168.3 443.3,164.8 437.8,161.3 432.4,157.8 427.3,154.2 422.3,150.7 417.6,147.2 413.0,143.7 408.5,140.1 404.3,136.6 400.1,133.1 396.1,129.6 392.3,126.0 388.5,122.5 384.9,119.0 381.4,115.4 378.0,111.9 374.7,108.4 371.5,104.9 368.4,101.3 365.4,97.8 362.4,94.3 359.6,90.8 356.8,87.2 354.0,83.7 351.4,80.2 348.8,76.7 346.3,73.1 343.9,69.6"/>

  <circle cx="526.2" cy="204" r="4" fill="#1a365d"/>
  <circle cx="303.1" cy="108" r="4" fill="#1a365d"/>

  <text x="470" y="58" text-anchor="start" font-size="12" fill="#7c7f46">Hicksian @ u1 → EV</text>
  <text x="470" y="78" text-anchor="start" font-size="12" fill="#2b6cb0">Walrasian → ΔCS</text>
  <text x="470" y="98" text-anchor="start" font-size="12" fill="#c53030">Hicksian @ u0 → CV</text>
  <text x="150" y="160" text-anchor="middle" font-size="12.5" fill="#2b6cb0">ΔCS</text>
  <text x="360" y="285" text-anchor="middle" font-size="12.5" fill="#334155">EV &lt; ΔCS &lt; CV</text>
</svg>
