<svg viewBox="0 0 700 340" xmlns="http://www.w3.org/2000/svg" font-family="-apple-system, 'Noto Sans SC', sans-serif">
  <line x1="80" y1="50" x2="80" y2="300" stroke="#94a1b2" stroke-width="1.5"/>
  <line x1="80" y1="300" x2="640" y2="300" stroke="#94a1b2" stroke-width="1.5"/>
  <text x="80" y="40" text-anchor="start" font-size="13" fill="#64748b">Boreal payoff u2</text>
  <text x="640" y="320" text-anchor="end" font-size="13" fill="#64748b">Aster payoff u1 →</text>

  <polygon points="556,270 420,150 148,90 284,210" fill="#2b6cb0" opacity="0.08" stroke="#2b6cb0" stroke-width="1.3"/>

  <polygon points="284,210 284,120 420,150 488,210" fill="#7c7f46" opacity="0.22"/>

  <line x1="284" y1="60" x2="284" y2="300" stroke="#c53030" stroke-width="1.2" stroke-dasharray="5 4"/>
  <line x1="80" y1="210" x2="600" y2="210" stroke="#c53030" stroke-width="1.2" stroke-dasharray="5 4"/>
  <text x="288" y="72" text-anchor="start" font-size="11.5" fill="#c53030">u1 = minmax = 6</text>
  <text x="596" y="205" text-anchor="end" font-size="11.5" fill="#c53030">u2 = minmax = 6</text>

  <circle cx="284" cy="210" r="4.5" fill="#1a365d"/>
  <text x="278" y="228" text-anchor="end" font-size="12" fill="#1a365d">(6, 6) one-shot NE</text>
  <circle cx="420" cy="150" r="4.5" fill="#c53030"/>
  <text x="430" y="146" text-anchor="start" font-size="12" fill="#c53030">(10, 10) cooperation</text>
  <circle cx="148" cy="90" r="3.5" fill="#64748b"/>
  <text x="156" y="88" text-anchor="start" font-size="11.5" fill="#64748b">(2, 14)</text>
  <circle cx="556" cy="270" r="3.5" fill="#64748b"/>
  <text x="560" y="266" text-anchor="start" font-size="11.5" fill="#64748b">(14, 2)</text>

  <text x="400" y="255" text-anchor="middle" font-size="12.5" fill="#5a5d33">as δ→1, entire shaded region is SPE-supportable</text>
</svg>
